<?xml version="1.0" encoding="UTF-8"?>
<svg id="Layer_1" xmlns="http://www.w3.org/2000/svg" version="1.1" viewBox="0 0 18 18">
  <!-- Generator: Adobe Illustrator 29.3.1, SVG Export Plug-In . SVG Version: 2.1.0 Build 151)  -->
  <defs>
    <style>
      .st0 {
        fill: #091736;
      }
    </style>
  </defs>
  <path class="st0" d="M16.66,5.28c.76.57,1.04,1.4,1.22,2.27.49,2.37-.93,5.84-2.94,7.18-1.5,1-3.15,1.12-4.84.75-3.04-.65-5.74-2.01-7.88-4.28C.97,9.88-.06,8.37.03,6.42c.05-1.16.61-2.04,1.66-2.61-.39.59-.8,1.21-.49,1.92.28.62.64,1.24,1.1,1.75,1.66,1.83,3.93,2.54,6.22,3.13,1.72.45,3.47.59,5.22.04,1.75-.55,3.18-2.41,3.13-4.14,0-.35-.16-.69-.24-1.04,0-.07.01-.13.02-.2Z"/>
  <path class="st0" d="M16.66,5.28c0,.07-.01.13-.02.2.17,2.68-1.76,4.76-4.6,4.93-.75.05-1.5-.03-2.24-.16.46-.14.95-.23,1.38-.44,1.39-.67,1.82-2.04.97-3.34-1.31-2.03-3.14-3.37-5.55-3.83-.12-.02-.25-.05-.37-.09-.05-.02-.09-.06-.24-.18,3.17-.06,6.24-.26,9.01,1.39.63.37,1.11,1.01,1.66,1.53Z"/>
  <path class="st0" d="M10.66,5.53c-2.78-.85-6.73.35-7.09,2.56-.83-.76-1.55-1.52-1.75-2.61-.17-.96.28-1.71,1.23-2.13,2.86-1.24,5.5-.4,7.61,2.18Z"/>
</svg>