<svg width="1728" height="1500" viewBox="0 0 1728 1500" fill="none" xmlns="http://www.w3.org/2000/svg">
<rect width="1728" height="1500" fill="white"/>
<mask id="mask0_2042_7484" style="mask-type:alpha" maskUnits="userSpaceOnUse" x="384" y="0" width="960" height="960">
<rect width="960" height="960" transform="translate(384)" fill="url(#paint0_radial_2042_7484)"/>
</mask>
<g mask="url(#mask0_2042_7484)">
<path d="M391 9.75H399M395.25 6V14M412 9.75H420M416.25 6V14M433 9.75H441M437.25 6V14M391 31.75H399M395.25 28V36M412 31.75H420M416.25 28V36M433 31.75H441M437.25 28V36M391 53.75H399M395.25 50V58M412 53.75H420M416.25 50V58M433 53.75H441M437.25 50V58M455 9.75H463M459.25 6V14M476 9.75H484M480.25 6V14M497 9.75H505M501.25 6V14M455 31.75H463M459.25 28V36M476 31.75H484M480.25 28V36M497 31.75H505M501.25 28V36M455 53.75H463M459.25 50V58M476 53.75H484M480.25 50V58M497 53.75H505M501.25 50V58M519 9.75H527M523.25 6V14M540 9.75H548M544.25 6V14M561 9.75H569M565.25 6V14M519 31.75H527M523.25 28V36M540 31.75H548M544.25 28V36M561 31.75H569M565.25 28V36M519 53.75H527M523.25 50V58M540 53.75H548M544.25 50V58M561 53.75H569M565.25 50V58M583 9.75H591M587.25 6V14M604 9.75H612M608.25 6V14M625 9.75H633M629.25 6V14M583 31.75H591M587.25 28V36M604 31.75H612M608.25 28V36M625 31.75H633M629.25 28V36M583 53.75H591M587.25 50V58M604 53.75H612M608.25 50V58M625 53.75H633M629.25 50V58M647 9.75H655M651.25 6V14M668 9.75H676M672.25 6V14M689 9.75H697M693.25 6V14M647 31.75H655M651.25 28V36M668 31.75H676M672.25 28V36M689 31.75H697M693.25 28V36M647 53.75H655M651.25 50V58M668 53.75H676M672.25 50V58M689 53.75H697M693.25 50V58M711 9.75H719M715.25 6V14M732 9.75H740M736.25 6V14M753 9.75H761M757.25 6V14M711 31.75H719M715.25 28V36M732 31.75H740M736.25 28V36M753 31.75H761M757.25 28V36M711 53.75H719M715.25 50V58M732 53.75H740M736.25 50V58M753 53.75H761M757.25 50V58M775 9.75H783M779.25 6V14M796 9.75H804M800.25 6V14M817 9.75H825M821.25 6V14M775 31.75H783M779.25 28V36M796 31.75H804M800.25 28V36M817 31.75H825M821.25 28V36M775 53.75H783M779.25 50V58M796 53.75H804M800.25 50V58M817 53.75H825M821.25 50V58M839 9.75H847M843.25 6V14M860 9.75H868M864.25 6V14M881 9.75H889M885.25 6V14M839 31.75H847M843.25 28V36M860 31.75H868M864.25 28V36M881 31.75H889M885.25 28V36M839 53.75H847M843.25 50V58M860 53.75H868M864.25 50V58M881 53.75H889M885.25 50V58M903 9.75H911M907.25 6V14M924 9.75H932M928.25 6V14M945 9.75H953M949.25 6V14M903 31.75H911M907.25 28V36M924 31.75H932M928.25 28V36M945 31.75H953M949.25 28V36M903 53.75H911M907.25 50V58M924 53.75H932M928.25 50V58M945 53.75H953M949.25 50V58M967 9.75H975M971.25 6V14M988 9.75H996M992.25 6V14M1009 9.75H1017M1013.25 6V14M967 31.75H975M971.25 28V36M988 31.75H996M992.25 28V36M1009 31.75H1017M1013.25 28V36M967 53.75H975M971.25 50V58M988 53.75H996M992.25 50V58M1009 53.75H1017M1013.25 50V58M1031 9.75H1039M1035.25 6V14M1052 9.75H1060M1056.25 6V14M1073 9.75H1081M1077.25 6V14M1031 31.75H1039M1035.25 28V36M1052 31.75H1060M1056.25 28V36M1073 31.75H1081M1077.25 28V36M1031 53.75H1039M1035.25 50V58M1052 53.75H1060M1056.25 50V58M1073 53.75H1081M1077.25 50V58M1095 9.75H1103M1099.25 6V14M1116 9.75H1124M1120.25 6V14M1137 9.75H1145M1141.25 6V14M1095 31.75H1103M1099.25 28V36M1116 31.75H1124M1120.25 28V36M1137 31.75H1145M1141.25 28V36M1095 53.75H1103M1099.25 50V58M1116 53.75H1124M1120.25 50V58M1137 53.75H1145M1141.25 50V58M1159 9.75H1167M1163.25 6V14M1180 9.75H1188M1184.25 6V14M1201 9.75H1209M1205.25 6V14M1159 31.75H1167M1163.25 28V36M1180 31.75H1188M1184.25 28V36M1201 31.75H1209M1205.25 28V36M1159 53.75H1167M1163.25 50V58M1180 53.75H1188M1184.25 50V58M1201 53.75H1209M1205.25 50V58M1223 9.75H1231M1227.25 6V14M1244 9.75H1252M1248.25 6V14M1265 9.75H1273M1269.25 6V14M1223 31.75H1231M1227.25 28V36M1244 31.75H1252M1248.25 28V36M1265 31.75H1273M1269.25 28V36M1223 53.75H1231M1227.25 50V58M1244 53.75H1252M1248.25 50V58M1265 53.75H1273M1269.25 50V58M1287 9.75H1295M1291.25 6V14M1308 9.75H1316M1312.25 6V14M1329 9.75H1337M1333.25 6V14M1287 31.75H1295M1291.25 28V36M1308 31.75H1316M1312.25 28V36M1329 31.75H1337M1333.25 28V36M1287 53.75H1295M1291.25 50V58M1308 53.75H1316M1312.25 50V58M1329 53.75H1337M1333.25 50V58M391 73.75H399M395.25 70V78M412 73.75H420M416.25 70V78M433 73.75H441M437.25 70V78M391 95.75H399M395.25 92V100M412 95.75H420M416.25 92V100M433 95.75H441M437.25 92V100M391 117.75H399M395.25 114V122M412 117.75H420M416.25 114V122M433 117.75H441M437.25 114V122M455 73.75H463M459.25 70V78M476 73.75H484M480.25 70V78M497 73.75H505M501.25 70V78M455 95.75H463M459.25 92V100M476 95.75H484M480.25 92V100M497 95.75H505M501.25 92V100M455 117.75H463M459.25 114V122M476 117.75H484M480.25 114V122M497 117.75H505M501.25 114V122M519 73.75H527M523.25 70V78M540 73.75H548M544.25 70V78M561 73.75H569M565.25 70V78M519 95.75H527M523.25 92V100M540 95.75H548M544.25 92V100M561 95.75H569M565.25 92V100M519 117.75H527M523.25 114V122M540 117.75H548M544.25 114V122M561 117.75H569M565.25 114V122M583 73.75H591M587.25 70V78M604 73.75H612M608.25 70V78M625 73.75H633M629.25 70V78M583 95.75H591M587.25 92V100M604 95.75H612M608.25 92V100M625 95.75H633M629.25 92V100M583 117.75H591M587.25 114V122M604 117.75H612M608.25 114V122M625 117.75H633M629.25 114V122M647 73.75H655M651.25 70V78M668 73.75H676M672.25 70V78M689 73.75H697M693.25 70V78M647 95.75H655M651.25 92V100M668 95.75H676M672.25 92V100M689 95.75H697M693.25 92V100M647 117.75H655M651.25 114V122M668 117.75H676M672.25 114V122M689 117.75H697M693.25 114V122M711 73.75H719M715.25 70V78M732 73.75H740M736.25 70V78M753 73.75H761M757.25 70V78M711 95.75H719M715.25 92V100M732 95.75H740M736.25 92V100M753 95.75H761M757.25 92V100M711 117.75H719M715.25 114V122M732 117.75H740M736.25 114V122M753 117.75H761M757.25 114V122M775 73.75H783M779.25 70V78M796 73.75H804M800.25 70V78M817 73.75H825M821.25 70V78M775 95.75H783M779.25 92V100M796 95.75H804M800.25 92V100M817 95.75H825M821.25 92V100M775 117.75H783M779.25 114V122M796 117.75H804M800.25 114V122M817 117.75H825M821.25 114V122M839 73.75H847M843.25 70V78M860 73.75H868M864.25 70V78M881 73.75H889M885.25 70V78M839 95.75H847M843.25 92V100M860 95.75H868M864.25 92V100M881 95.75H889M885.25 92V100M839 117.75H847M843.25 114V122M860 117.75H868M864.25 114V122M881 117.75H889M885.25 114V122M903 73.75H911M907.25 70V78M924 73.75H932M928.25 70V78M945 73.75H953M949.25 70V78M903 95.75H911M907.25 92V100M924 95.75H932M928.25 92V100M945 95.75H953M949.25 92V100M903 117.75H911M907.25 114V122M924 117.75H932M928.25 114V122M945 117.75H953M949.25 114V122M967 73.75H975M971.25 70V78M988 73.75H996M992.25 70V78M1009 73.75H1017M1013.25 70V78M967 95.75H975M971.25 92V100M988 95.75H996M992.25 92V100M1009 95.75H1017M1013.25 92V100M967 117.75H975M971.25 114V122M988 117.75H996M992.25 114V122M1009 117.75H1017M1013.25 114V122M1031 73.75H1039M1035.25 70V78M1052 73.75H1060M1056.25 70V78M1073 73.75H1081M1077.25 70V78M1031 95.75H1039M1035.25 92V100M1052 95.75H1060M1056.25 92V100M1073 95.75H1081M1077.25 92V100M1031 117.75H1039M1035.25 114V122M1052 117.75H1060M1056.25 114V122M1073 117.75H1081M1077.25 114V122M1095 73.75H1103M1099.25 70V78M1116 73.75H1124M1120.25 70V78M1137 73.75H1145M1141.25 70V78M1095 95.75H1103M1099.25 92V100M1116 95.75H1124M1120.25 92V100M1137 95.75H1145M1141.25 92V100M1095 117.75H1103M1099.25 114V122M1116 117.75H1124M1120.25 114V122M1137 117.75H1145M1141.25 114V122M1159 73.75H1167M1163.25 70V78M1180 73.75H1188M1184.25 70V78M1201 73.75H1209M1205.25 70V78M1159 95.75H1167M1163.25 92V100M1180 95.75H1188M1184.25 92V100M1201 95.75H1209M1205.25 92V100M1159 117.75H1167M1163.25 114V122M1180 117.75H1188M1184.25 114V122M1201 117.75H1209M1205.25 114V122M1223 73.75H1231M1227.25 70V78M1244 73.75H1252M1248.25 70V78M1265 73.75H1273M1269.25 70V78M1223 95.75H1231M1227.25 92V100M1244 95.75H1252M1248.25 92V100M1265 95.75H1273M1269.25 92V100M1223 117.75H1231M1227.25 114V122M1244 117.75H1252M1248.25 114V122M1265 117.75H1273M1269.25 114V122M1287 73.75H1295M1291.25 70V78M1308 73.75H1316M1312.25 70V78M1329 73.75H1337M1333.25 70V78M1287 95.75H1295M1291.25 92V100M1308 95.75H1316M1312.25 92V100M1329 95.75H1337M1333.25 92V100M1287 117.75H1295M1291.25 114V122M1308 117.75H1316M1312.25 114V122M1329 117.75H1337M1333.25 114V122M391 137.75H399M395.25 134V142M412 137.75H420M416.25 134V142M433 137.75H441M437.25 134V142M391 159.75H399M395.25 156V164M412 159.75H420M416.25 156V164M433 159.75H441M437.25 156V164M391 181.75H399M395.25 178V186M412 181.75H420M416.25 178V186M433 181.75H441M437.25 178V186M455 137.75H463M459.25 134V142M476 137.75H484M480.25 134V142M497 137.75H505M501.25 134V142M455 159.75H463M459.25 156V164M476 159.75H484M480.25 156V164M497 159.75H505M501.25 156V164M455 181.75H463M459.25 178V186M476 181.75H484M480.25 178V186M497 181.75H505M501.25 178V186M519 137.75H527M523.25 134V142M540 137.75H548M544.25 134V142M561 137.75H569M565.25 134V142M519 159.75H527M523.25 156V164M540 159.75H548M544.25 156V164M561 159.75H569M565.25 156V164M519 181.75H527M523.25 178V186M540 181.75H548M544.25 178V186M561 181.75H569M565.25 178V186M583 137.75H591M587.25 134V142M604 137.75H612M608.25 134V142M625 137.75H633M629.25 134V142M583 159.75H591M587.25 156V164M604 159.75H612M608.25 156V164M625 159.75H633M629.25 156V164M583 181.75H591M587.25 178V186M604 181.75H612M608.25 178V186M625 181.75H633M629.25 178V186M647 137.75H655M651.25 134V142M668 137.75H676M672.25 134V142M689 137.75H697M693.25 134V142M647 159.75H655M651.25 156V164M668 159.75H676M672.25 156V164M689 159.75H697M693.25 156V164M647 181.75H655M651.25 178V186M668 181.75H676M672.25 178V186M689 181.75H697M693.25 178V186M711 137.75H719M715.25 134V142M732 137.75H740M736.25 134V142M753 137.75H761M757.25 134V142M711 159.75H719M715.25 156V164M732 159.75H740M736.25 156V164M753 159.75H761M757.25 156V164M711 181.75H719M715.25 178V186M732 181.75H740M736.25 178V186M753 181.75H761M757.25 178V186M775 137.75H783M779.25 134V142M796 137.75H804M800.25 134V142M817 137.75H825M821.25 134V142M775 159.75H783M779.25 156V164M796 159.75H804M800.25 156V164M817 159.75H825M821.25 156V164M775 181.75H783M779.25 178V186M796 181.75H804M800.25 178V186M817 181.75H825M821.25 178V186M839 137.75H847M843.25 134V142M860 137.75H868M864.25 134V142M881 137.75H889M885.25 134V142M839 159.75H847M843.25 156V164M860 159.75H868M864.25 156V164M881 159.75H889M885.25 156V164M839 181.75H847M843.25 178V186M860 181.75H868M864.25 178V186M881 181.75H889M885.25 178V186M903 137.75H911M907.25 134V142M924 137.75H932M928.25 134V142M945 137.75H953M949.25 134V142M903 159.75H911M907.25 156V164M924 159.75H932M928.25 156V164M945 159.75H953M949.25 156V164M903 181.75H911M907.25 178V186M924 181.75H932M928.25 178V186M945 181.75H953M949.25 178V186M967 137.75H975M971.25 134V142M988 137.75H996M992.25 134V142M1009 137.75H1017M1013.25 134V142M967 159.75H975M971.25 156V164M988 159.75H996M992.25 156V164M1009 159.75H1017M1013.25 156V164M967 181.75H975M971.25 178V186M988 181.75H996M992.25 178V186M1009 181.75H1017M1013.25 178V186M1031 137.75H1039M1035.25 134V142M1052 137.75H1060M1056.25 134V142M1073 137.75H1081M1077.25 134V142M1031 159.75H1039M1035.25 156V164M1052 159.75H1060M1056.25 156V164M1073 159.75H1081M1077.25 156V164M1031 181.75H1039M1035.25 178V186M1052 181.75H1060M1056.25 178V186M1073 181.75H1081M1077.25 178V186M1095 137.75H1103M1099.25 134V142M1116 137.75H1124M1120.25 134V142M1137 137.75H1145M1141.25 134V142M1095 159.75H1103M1099.25 156V164M1116 159.75H1124M1120.25 156V164M1137 159.75H1145M1141.25 156V164M1095 181.75H1103M1099.25 178V186M1116 181.75H1124M1120.25 178V186M1137 181.75H1145M1141.25 178V186M1159 137.75H1167M1163.25 134V142M1180 137.75H1188M1184.25 134V142M1201 137.75H1209M1205.25 134V142M1159 159.75H1167M1163.25 156V164M1180 159.75H1188M1184.25 156V164M1201 159.75H1209M1205.25 156V164M1159 181.75H1167M1163.25 178V186M1180 181.75H1188M1184.25 178V186M1201 181.75H1209M1205.25 178V186M1223 137.75H1231M1227.25 134V142M1244 137.75H1252M1248.25 134V142M1265 137.75H1273M1269.25 134V142M1223 159.75H1231M1227.25 156V164M1244 159.75H1252M1248.25 156V164M1265 159.75H1273M1269.25 156V164M1223 181.75H1231M1227.25 178V186M1244 181.75H1252M1248.25 178V186M1265 181.75H1273M1269.25 178V186M1287 137.75H1295M1291.25 134V142M1308 137.75H1316M1312.25 134V142M1329 137.75H1337M1333.25 134V142M1287 159.75H1295M1291.25 156V164M1308 159.75H1316M1312.25 156V164M1329 159.75H1337M1333.25 156V164M1287 181.75H1295M1291.25 178V186M1308 181.75H1316M1312.25 178V186M1329 181.75H1337M1333.25 178V186M391 201.75H399M395.25 198V206M412 201.75H420M416.25 198V206M433 201.75H441M437.25 198V206M391 223.75H399M395.25 220V228M412 223.75H420M416.25 220V228M433 223.75H441M437.25 220V228M391 245.75H399M395.25 242V250M412 245.75H420M416.25 242V250M433 245.75H441M437.25 242V250M455 201.75H463M459.25 198V206M476 201.75H484M480.25 198V206M497 201.75H505M501.25 198V206M455 223.75H463M459.25 220V228M476 223.75H484M480.25 220V228M497 223.75H505M501.25 220V228M455 245.75H463M459.25 242V250M476 245.75H484M480.25 242V250M497 245.75H505M501.25 242V250M519 201.75H527M523.25 198V206M540 201.75H548M544.25 198V206M561 201.75H569M565.25 198V206M519 223.75H527M523.25 220V228M540 223.75H548M544.25 220V228M561 223.75H569M565.25 220V228M519 245.75H527M523.25 242V250M540 245.75H548M544.25 242V250M561 245.75H569M565.25 242V250M583 201.75H591M587.25 198V206M604 201.75H612M608.25 198V206M625 201.75H633M629.25 198V206M583 223.75H591M587.25 220V228M604 223.75H612M608.25 220V228M625 223.75H633M629.25 220V228M583 245.75H591M587.25 242V250M604 245.75H612M608.25 242V250M625 245.75H633M629.25 242V250M647 201.75H655M651.25 198V206M668 201.75H676M672.25 198V206M689 201.75H697M693.25 198V206M647 223.75H655M651.25 220V228M668 223.75H676M672.25 220V228M689 223.75H697M693.25 220V228M647 245.75H655M651.25 242V250M668 245.75H676M672.25 242V250M689 245.75H697M693.25 242V250M711 201.75H719M715.25 198V206M732 201.75H740M736.25 198V206M753 201.75H761M757.25 198V206M711 223.75H719M715.25 220V228M732 223.75H740M736.25 220V228M753 223.75H761M757.25 220V228M711 245.75H719M715.25 242V250M732 245.75H740M736.25 242V250M753 245.75H761M757.25 242V250M775 201.75H783M779.25 198V206M796 201.75H804M800.25 198V206M817 201.75H825M821.25 198V206M775 223.75H783M779.25 220V228M796 223.75H804M800.25 220V228M817 223.75H825M821.25 220V228M775 245.75H783M779.25 242V250M796 245.75H804M800.25 242V250M817 245.75H825M821.25 242V250M839 201.75H847M843.25 198V206M860 201.75H868M864.25 198V206M881 201.75H889M885.25 198V206M839 223.75H847M843.25 220V228M860 223.75H868M864.25 220V228M881 223.75H889M885.25 220V228M839 245.75H847M843.25 242V250M860 245.75H868M864.25 242V250M881 245.75H889M885.25 242V250M903 201.75H911M907.25 198V206M924 201.75H932M928.25 198V206M945 201.75H953M949.25 198V206M903 223.75H911M907.25 220V228M924 223.75H932M928.25 220V228M945 223.75H953M949.25 220V228M903 245.75H911M907.25 242V250M924 245.75H932M928.25 242V250M945 245.75H953M949.25 242V250M967 201.75H975M971.25 198V206M988 201.75H996M992.25 198V206M1009 201.75H1017M1013.25 198V206M967 223.75H975M971.25 220V228M988 223.75H996M992.25 220V228M1009 223.75H1017M1013.25 220V228M967 245.75H975M971.25 242V250M988 245.75H996M992.25 242V250M1009 245.75H1017M1013.25 242V250M1031 201.75H1039M1035.25 198V206M1052 201.75H1060M1056.25 198V206M1073 201.75H1081M1077.25 198V206M1031 223.75H1039M1035.25 220V228M1052 223.75H1060M1056.25 220V228M1073 223.75H1081M1077.25 220V228M1031 245.75H1039M1035.25 242V250M1052 245.75H1060M1056.25 242V250M1073 245.75H1081M1077.25 242V250M1095 201.75H1103M1099.25 198V206M1116 201.75H1124M1120.25 198V206M1137 201.75H1145M1141.25 198V206M1095 223.75H1103M1099.25 220V228M1116 223.75H1124M1120.25 220V228M1137 223.75H1145M1141.25 220V228M1095 245.75H1103M1099.25 242V250M1116 245.75H1124M1120.25 242V250M1137 245.75H1145M1141.25 242V250M1159 201.75H1167M1163.25 198V206M1180 201.75H1188M1184.25 198V206M1201 201.75H1209M1205.25 198V206M1159 223.75H1167M1163.25 220V228M1180 223.75H1188M1184.25 220V228M1201 223.75H1209M1205.25 220V228M1159 245.75H1167M1163.25 242V250M1180 245.75H1188M1184.25 242V250M1201 245.75H1209M1205.25 242V250M1223 201.75H1231M1227.25 198V206M1244 201.75H1252M1248.25 198V206M1265 201.75H1273M1269.25 198V206M1223 223.75H1231M1227.25 220V228M1244 223.75H1252M1248.25 220V228M1265 223.75H1273M1269.25 220V228M1223 245.75H1231M1227.25 242V250M1244 245.75H1252M1248.25 242V250M1265 245.75H1273M1269.25 242V250M1287 201.75H1295M1291.25 198V206M1308 201.75H1316M1312.25 198V206M1329 201.75H1337M1333.25 198V206M1287 223.75H1295M1291.25 220V228M1308 223.75H1316M1312.25 220V228M1329 223.75H1337M1333.25 220V228M1287 245.75H1295M1291.25 242V250M1308 245.75H1316M1312.25 242V250M1329 245.75H1337M1333.25 242V250M391 265.75H399M395.25 262V270M412 265.75H420M416.25 262V270M433 265.75H441M437.25 262V270M391 287.75H399M395.25 284V292M412 287.75H420M416.25 284V292M433 287.75H441M437.25 284V292M391 309.75H399M395.25 306V314M412 309.75H420M416.25 306V314M433 309.75H441M437.25 306V314M455 265.75H463M459.25 262V270M476 265.75H484M480.25 262V270M497 265.75H505M501.25 262V270M455 287.75H463M459.25 284V292M476 287.75H484M480.25 284V292M497 287.75H505M501.25 284V292M455 309.75H463M459.25 306V314M476 309.75H484M480.25 306V314M497 309.75H505M501.25 306V314M519 265.75H527M523.25 262V270M540 265.75H548M544.25 262V270M561 265.75H569M565.25 262V270M519 287.75H527M523.25 284V292M540 287.75H548M544.25 284V292M561 287.75H569M565.25 284V292M519 309.75H527M523.25 306V314M540 309.75H548M544.25 306V314M561 309.75H569M565.25 306V314M583 265.75H591M587.25 262V270M604 265.75H612M608.25 262V270M625 265.75H633M629.25 262V270M583 287.75H591M587.25 284V292M604 287.75H612M608.25 284V292M625 287.75H633M629.25 284V292M583 309.75H591M587.25 306V314M604 309.75H612M608.25 306V314M625 309.75H633M629.25 306V314M647 265.75H655M651.25 262V270M668 265.75H676M672.25 262V270M689 265.75H697M693.25 262V270M647 287.75H655M651.25 284V292M668 287.75H676M672.25 284V292M689 287.75H697M693.25 284V292M647 309.75H655M651.25 306V314M668 309.75H676M672.25 306V314M689 309.75H697M693.25 306V314M711 265.75H719M715.25 262V270M732 265.75H740M736.25 262V270M753 265.75H761M757.25 262V270M711 287.75H719M715.25 284V292M732 287.75H740M736.25 284V292M753 287.75H761M757.25 284V292M711 309.75H719M715.25 306V314M732 309.75H740M736.25 306V314M753 309.75H761M757.25 306V314M775 265.75H783M779.25 262V270M796 265.75H804M800.25 262V270M817 265.75H825M821.25 262V270M775 287.75H783M779.25 284V292M796 287.75H804M800.25 284V292M817 287.75H825M821.25 284V292M775 309.75H783M779.25 306V314M796 309.75H804M800.25 306V314M817 309.75H825M821.25 306V314M839 265.75H847M843.25 262V270M860 265.75H868M864.25 262V270M881 265.75H889M885.25 262V270M839 287.75H847M843.25 284V292M860 287.75H868M864.25 284V292M881 287.75H889M885.25 284V292M839 309.75H847M843.25 306V314M860 309.75H868M864.25 306V314M881 309.75H889M885.25 306V314M903 265.75H911M907.25 262V270M924 265.75H932M928.25 262V270M945 265.75H953M949.25 262V270M903 287.75H911M907.25 284V292M924 287.75H932M928.25 284V292M945 287.75H953M949.25 284V292M903 309.75H911M907.25 306V314M924 309.75H932M928.25 306V314M945 309.75H953M949.25 306V314M967 265.75H975M971.25 262V270M988 265.75H996M992.25 262V270M1009 265.75H1017M1013.25 262V270M967 287.75H975M971.25 284V292M988 287.75H996M992.25 284V292M1009 287.75H1017M1013.25 284V292M967 309.75H975M971.25 306V314M988 309.75H996M992.25 306V314M1009 309.75H1017M1013.25 306V314M1031 265.75H1039M1035.25 262V270M1052 265.75H1060M1056.25 262V270M1073 265.75H1081M1077.25 262V270M1031 287.75H1039M1035.25 284V292M1052 287.75H1060M1056.25 284V292M1073 287.75H1081M1077.25 284V292M1031 309.75H1039M1035.25 306V314M1052 309.75H1060M1056.25 306V314M1073 309.75H1081M1077.25 306V314M1095 265.75H1103M1099.25 262V270M1116 265.75H1124M1120.25 262V270M1137 265.75H1145M1141.25 262V270M1095 287.75H1103M1099.25 284V292M1116 287.75H1124M1120.25 284V292M1137 287.75H1145M1141.25 284V292M1095 309.75H1103M1099.25 306V314M1116 309.75H1124M1120.25 306V314M1137 309.75H1145M1141.25 306V314M1159 265.75H1167M1163.25 262V270M1180 265.75H1188M1184.25 262V270M1201 265.75H1209M1205.25 262V270M1159 287.75H1167M1163.25 284V292M1180 287.75H1188M1184.25 284V292M1201 287.75H1209M1205.25 284V292M1159 309.75H1167M1163.25 306V314M1180 309.75H1188M1184.25 306V314M1201 309.75H1209M1205.25 306V314M1223 265.75H1231M1227.25 262V270M1244 265.75H1252M1248.25 262V270M1265 265.75H1273M1269.25 262V270M1223 287.75H1231M1227.25 284V292M1244 287.75H1252M1248.25 284V292M1265 287.75H1273M1269.25 284V292M1223 309.75H1231M1227.25 306V314M1244 309.75H1252M1248.25 306V314M1265 309.75H1273M1269.25 306V314M1287 265.75H1295M1291.25 262V270M1308 265.75H1316M1312.25 262V270M1329 265.75H1337M1333.25 262V270M1287 287.75H1295M1291.25 284V292M1308 287.75H1316M1312.25 284V292M1329 287.75H1337M1333.25 284V292M1287 309.75H1295M1291.25 306V314M1308 309.75H1316M1312.25 306V314M1329 309.75H1337M1333.25 306V314M391 329.75H399M395.25 326V334M412 329.75H420M416.25 326V334M433 329.75H441M437.25 326V334M391 351.75H399M395.25 348V356M412 351.75H420M416.25 348V356M433 351.75H441M437.25 348V356M391 373.75H399M395.25 370V378M412 373.75H420M416.25 370V378M433 373.75H441M437.25 370V378M455 329.75H463M459.25 326V334M476 329.75H484M480.25 326V334M497 329.75H505M501.25 326V334M455 351.75H463M459.25 348V356M476 351.75H484M480.25 348V356M497 351.75H505M501.25 348V356M455 373.75H463M459.25 370V378M476 373.75H484M480.25 370V378M497 373.75H505M501.25 370V378M519 329.75H527M523.25 326V334M540 329.75H548M544.25 326V334M561 329.75H569M565.25 326V334M519 351.75H527M523.25 348V356M540 351.75H548M544.25 348V356M561 351.75H569M565.25 348V356M519 373.75H527M523.25 370V378M540 373.75H548M544.25 370V378M561 373.75H569M565.25 370V378M583 329.75H591M587.25 326V334M604 329.75H612M608.25 326V334M625 329.75H633M629.25 326V334M583 351.75H591M587.25 348V356M604 351.75H612M608.25 348V356M625 351.75H633M629.25 348V356M583 373.75H591M587.25 370V378M604 373.75H612M608.25 370V378M625 373.75H633M629.25 370V378M647 329.75H655M651.25 326V334M668 329.75H676M672.25 326V334M689 329.75H697M693.25 326V334M647 351.75H655M651.25 348V356M668 351.75H676M672.25 348V356M689 351.75H697M693.25 348V356M647 373.75H655M651.25 370V378M668 373.75H676M672.25 370V378M689 373.75H697M693.25 370V378M711 329.75H719M715.25 326V334M732 329.75H740M736.25 326V334M753 329.75H761M757.25 326V334M711 351.75H719M715.25 348V356M732 351.75H740M736.25 348V356M753 351.75H761M757.25 348V356M711 373.75H719M715.25 370V378M732 373.75H740M736.25 370V378M753 373.75H761M757.25 370V378M775 329.75H783M779.25 326V334M796 329.75H804M800.25 326V334M817 329.75H825M821.25 326V334M775 351.75H783M779.25 348V356M796 351.75H804M800.25 348V356M817 351.75H825M821.25 348V356M775 373.75H783M779.25 370V378M796 373.75H804M800.25 370V378M817 373.75H825M821.25 370V378M839 329.75H847M843.25 326V334M860 329.75H868M864.25 326V334M881 329.75H889M885.25 326V334M839 351.75H847M843.25 348V356M860 351.75H868M864.25 348V356M881 351.75H889M885.25 348V356M839 373.75H847M843.25 370V378M860 373.75H868M864.25 370V378M881 373.75H889M885.25 370V378M903 329.75H911M907.25 326V334M924 329.75H932M928.25 326V334M945 329.75H953M949.25 326V334M903 351.75H911M907.25 348V356M924 351.75H932M928.25 348V356M945 351.75H953M949.25 348V356M903 373.75H911M907.25 370V378M924 373.75H932M928.25 370V378M945 373.75H953M949.25 370V378M967 329.75H975M971.25 326V334M988 329.75H996M992.25 326V334M1009 329.75H1017M1013.25 326V334M967 351.75H975M971.25 348V356M988 351.75H996M992.25 348V356M1009 351.75H1017M1013.25 348V356M967 373.75H975M971.25 370V378M988 373.75H996M992.25 370V378M1009 373.75H1017M1013.25 370V378M1031 329.75H1039M1035.25 326V334M1052 329.75H1060M1056.25 326V334M1073 329.75H1081M1077.25 326V334M1031 351.75H1039M1035.25 348V356M1052 351.75H1060M1056.25 348V356M1073 351.75H1081M1077.25 348V356M1031 373.75H1039M1035.25 370V378M1052 373.75H1060M1056.25 370V378M1073 373.75H1081M1077.25 370V378M1095 329.75H1103M1099.25 326V334M1116 329.75H1124M1120.25 326V334M1137 329.75H1145M1141.25 326V334M1095 351.75H1103M1099.25 348V356M1116 351.75H1124M1120.25 348V356M1137 351.75H1145M1141.25 348V356M1095 373.75H1103M1099.25 370V378M1116 373.75H1124M1120.25 370V378M1137 373.75H1145M1141.25 370V378M1159 329.75H1167M1163.25 326V334M1180 329.75H1188M1184.25 326V334M1201 329.75H1209M1205.25 326V334M1159 351.75H1167M1163.25 348V356M1180 351.75H1188M1184.25 348V356M1201 351.75H1209M1205.25 348V356M1159 373.75H1167M1163.25 370V378M1180 373.75H1188M1184.25 370V378M1201 373.75H1209M1205.25 370V378M1223 329.75H1231M1227.25 326V334M1244 329.75H1252M1248.25 326V334M1265 329.75H1273M1269.25 326V334M1223 351.75H1231M1227.25 348V356M1244 351.75H1252M1248.25 348V356M1265 351.75H1273M1269.25 348V356M1223 373.75H1231M1227.25 370V378M1244 373.75H1252M1248.25 370V378M1265 373.75H1273M1269.25 370V378M1287 329.75H1295M1291.25 326V334M1308 329.75H1316M1312.25 326V334M1329 329.75H1337M1333.25 326V334M1287 351.75H1295M1291.25 348V356M1308 351.75H1316M1312.25 348V356M1329 351.75H1337M1333.25 348V356M1287 373.75H1295M1291.25 370V378M1308 373.75H1316M1312.25 370V378M1329 373.75H1337M1333.25 370V378M391 393.75H399M395.25 390V398M412 393.75H420M416.25 390V398M433 393.75H441M437.25 390V398M391 415.75H399M395.25 412V420M412 415.75H420M416.25 412V420M433 415.75H441M437.25 412V420M391 437.75H399M395.25 434V442M412 437.75H420M416.25 434V442M433 437.75H441M437.25 434V442M455 393.75H463M459.25 390V398M476 393.75H484M480.25 390V398M497 393.75H505M501.25 390V398M455 415.75H463M459.25 412V420M476 415.75H484M480.25 412V420M497 415.75H505M501.25 412V420M455 437.75H463M459.25 434V442M476 437.75H484M480.25 434V442M497 437.75H505M501.25 434V442M519 393.75H527M523.25 390V398M540 393.75H548M544.25 390V398M561 393.75H569M565.25 390V398M519 415.75H527M523.25 412V420M540 415.75H548M544.25 412V420M561 415.75H569M565.25 412V420M519 437.75H527M523.25 434V442M540 437.75H548M544.25 434V442M561 437.75H569M565.25 434V442M583 393.75H591M587.25 390V398M604 393.75H612M608.25 390V398M625 393.75H633M629.25 390V398M583 415.75H591M587.25 412V420M604 415.75H612M608.25 412V420M625 415.75H633M629.25 412V420M583 437.75H591M587.25 434V442M604 437.75H612M608.25 434V442M625 437.75H633M629.25 434V442M647 393.75H655M651.25 390V398M668 393.75H676M672.25 390V398M689 393.75H697M693.25 390V398M647 415.75H655M651.25 412V420M668 415.75H676M672.25 412V420M689 415.75H697M693.25 412V420M647 437.75H655M651.25 434V442M668 437.75H676M672.25 434V442M689 437.75H697M693.25 434V442M711 393.75H719M715.25 390V398M732 393.75H740M736.25 390V398M753 393.75H761M757.25 390V398M711 415.75H719M715.25 412V420M732 415.75H740M736.25 412V420M753 415.75H761M757.25 412V420M711 437.75H719M715.25 434V442M732 437.75H740M736.25 434V442M753 437.75H761M757.25 434V442M775 393.75H783M779.25 390V398M796 393.75H804M800.25 390V398M817 393.75H825M821.25 390V398M775 415.75H783M779.25 412V420M796 415.75H804M800.25 412V420M817 415.75H825M821.25 412V420M775 437.75H783M779.25 434V442M796 437.75H804M800.25 434V442M817 437.75H825M821.25 434V442M839 393.75H847M843.25 390V398M860 393.75H868M864.25 390V398M881 393.75H889M885.25 390V398M839 415.75H847M843.25 412V420M860 415.75H868M864.25 412V420M881 415.75H889M885.25 412V420M839 437.75H847M843.25 434V442M860 437.75H868M864.25 434V442M881 437.75H889M885.25 434V442M903 393.75H911M907.25 390V398M924 393.75H932M928.25 390V398M945 393.75H953M949.25 390V398M903 415.75H911M907.25 412V420M924 415.75H932M928.25 412V420M945 415.75H953M949.25 412V420M903 437.75H911M907.25 434V442M924 437.75H932M928.25 434V442M945 437.75H953M949.25 434V442M967 393.75H975M971.25 390V398M988 393.75H996M992.25 390V398M1009 393.75H1017M1013.25 390V398M967 415.75H975M971.25 412V420M988 415.75H996M992.25 412V420M1009 415.75H1017M1013.25 412V420M967 437.75H975M971.25 434V442M988 437.75H996M992.25 434V442M1009 437.75H1017M1013.25 434V442M1031 393.75H1039M1035.25 390V398M1052 393.75H1060M1056.25 390V398M1073 393.75H1081M1077.25 390V398M1031 415.75H1039M1035.25 412V420M1052 415.75H1060M1056.25 412V420M1073 415.75H1081M1077.25 412V420M1031 437.75H1039M1035.25 434V442M1052 437.75H1060M1056.25 434V442M1073 437.75H1081M1077.25 434V442M1095 393.75H1103M1099.25 390V398M1116 393.75H1124M1120.25 390V398M1137 393.75H1145M1141.25 390V398M1095 415.75H1103M1099.25 412V420M1116 415.75H1124M1120.25 412V420M1137 415.75H1145M1141.25 412V420M1095 437.75H1103M1099.25 434V442M1116 437.75H1124M1120.25 434V442M1137 437.75H1145M1141.25 434V442M1159 393.75H1167M1163.25 390V398M1180 393.75H1188M1184.25 390V398M1201 393.75H1209M1205.25 390V398M1159 415.75H1167M1163.25 412V420M1180 415.75H1188M1184.25 412V420M1201 415.75H1209M1205.25 412V420M1159 437.75H1167M1163.25 434V442M1180 437.75H1188M1184.25 434V442M1201 437.75H1209M1205.25 434V442M1223 393.75H1231M1227.25 390V398M1244 393.75H1252M1248.25 390V398M1265 393.75H1273M1269.25 390V398M1223 415.75H1231M1227.25 412V420M1244 415.75H1252M1248.25 412V420M1265 415.75H1273M1269.25 412V420M1223 437.75H1231M1227.25 434V442M1244 437.75H1252M1248.25 434V442M1265 437.75H1273M1269.25 434V442M1287 393.75H1295M1291.25 390V398M1308 393.75H1316M1312.25 390V398M1329 393.75H1337M1333.25 390V398M1287 415.75H1295M1291.25 412V420M1308 415.75H1316M1312.25 412V420M1329 415.75H1337M1333.25 412V420M1287 437.75H1295M1291.25 434V442M1308 437.75H1316M1312.25 434V442M1329 437.75H1337M1333.25 434V442M391 457.75H399M395.25 454V462M412 457.75H420M416.25 454V462M433 457.75H441M437.25 454V462M391 479.75H399M395.25 476V484M412 479.75H420M416.25 476V484M433 479.75H441M437.25 476V484M391 501.75H399M395.25 498V506M412 501.75H420M416.25 498V506M433 501.75H441M437.25 498V506M455 457.75H463M459.25 454V462M476 457.75H484M480.25 454V462M497 457.75H505M501.25 454V462M455 479.75H463M459.25 476V484M476 479.75H484M480.25 476V484M497 479.75H505M501.25 476V484M455 501.75H463M459.25 498V506M476 501.75H484M480.25 498V506M497 501.75H505M501.25 498V506M519 457.75H527M523.25 454V462M540 457.75H548M544.25 454V462M561 457.75H569M565.25 454V462M519 479.75H527M523.25 476V484M540 479.75H548M544.25 476V484M561 479.75H569M565.25 476V484M519 501.75H527M523.25 498V506M540 501.75H548M544.25 498V506M561 501.75H569M565.25 498V506M583 457.75H591M587.25 454V462M604 457.75H612M608.25 454V462M625 457.75H633M629.25 454V462M583 479.75H591M587.25 476V484M604 479.75H612M608.25 476V484M625 479.75H633M629.25 476V484M583 501.75H591M587.25 498V506M604 501.75H612M608.25 498V506M625 501.75H633M629.25 498V506M647 457.75H655M651.25 454V462M668 457.75H676M672.25 454V462M689 457.75H697M693.25 454V462M647 479.75H655M651.25 476V484M668 479.75H676M672.25 476V484M689 479.75H697M693.25 476V484M647 501.75H655M651.25 498V506M668 501.75H676M672.25 498V506M689 501.75H697M693.25 498V506M711 457.75H719M715.25 454V462M732 457.75H740M736.25 454V462M753 457.75H761M757.25 454V462M711 479.75H719M715.25 476V484M732 479.75H740M736.25 476V484M753 479.75H761M757.25 476V484M711 501.75H719M715.25 498V506M732 501.75H740M736.25 498V506M753 501.75H761M757.25 498V506M775 457.75H783M779.25 454V462M796 457.75H804M800.25 454V462M817 457.75H825M821.25 454V462M775 479.75H783M779.25 476V484M796 479.75H804M800.25 476V484M817 479.75H825M821.25 476V484M775 501.75H783M779.25 498V506M796 501.75H804M800.25 498V506M817 501.75H825M821.25 498V506M839 457.75H847M843.25 454V462M860 457.75H868M864.25 454V462M881 457.75H889M885.25 454V462M839 479.75H847M843.25 476V484M860 479.75H868M864.25 476V484M881 479.75H889M885.25 476V484M839 501.75H847M843.25 498V506M860 501.75H868M864.25 498V506M881 501.75H889M885.25 498V506M903 457.75H911M907.25 454V462M924 457.75H932M928.25 454V462M945 457.75H953M949.25 454V462M903 479.75H911M907.25 476V484M924 479.75H932M928.25 476V484M945 479.75H953M949.25 476V484M903 501.75H911M907.25 498V506M924 501.75H932M928.25 498V506M945 501.75H953M949.25 498V506M967 457.75H975M971.25 454V462M988 457.75H996M992.25 454V462M1009 457.75H1017M1013.25 454V462M967 479.75H975M971.25 476V484M988 479.75H996M992.25 476V484M1009 479.75H1017M1013.25 476V484M967 501.75H975M971.25 498V506M988 501.75H996M992.25 498V506M1009 501.75H1017M1013.25 498V506M1031 457.75H1039M1035.25 454V462M1052 457.75H1060M1056.25 454V462M1073 457.75H1081M1077.25 454V462M1031 479.75H1039M1035.25 476V484M1052 479.75H1060M1056.25 476V484M1073 479.75H1081M1077.25 476V484M1031 501.75H1039M1035.25 498V506M1052 501.75H1060M1056.25 498V506M1073 501.75H1081M1077.25 498V506M1095 457.75H1103M1099.25 454V462M1116 457.75H1124M1120.25 454V462M1137 457.75H1145M1141.25 454V462M1095 479.75H1103M1099.25 476V484M1116 479.75H1124M1120.25 476V484M1137 479.75H1145M1141.25 476V484M1095 501.75H1103M1099.25 498V506M1116 501.75H1124M1120.25 498V506M1137 501.75H1145M1141.25 498V506M1159 457.75H1167M1163.25 454V462M1180 457.75H1188M1184.25 454V462M1201 457.75H1209M1205.25 454V462M1159 479.75H1167M1163.25 476V484M1180 479.75H1188M1184.25 476V484M1201 479.75H1209M1205.25 476V484M1159 501.75H1167M1163.25 498V506M1180 501.75H1188M1184.25 498V506M1201 501.75H1209M1205.25 498V506M1223 457.75H1231M1227.25 454V462M1244 457.75H1252M1248.25 454V462M1265 457.75H1273M1269.25 454V462M1223 479.75H1231M1227.25 476V484M1244 479.75H1252M1248.25 476V484M1265 479.75H1273M1269.25 476V484M1223 501.75H1231M1227.25 498V506M1244 501.75H1252M1248.25 498V506M1265 501.75H1273M1269.25 498V506M1287 457.75H1295M1291.25 454V462M1308 457.75H1316M1312.25 454V462M1329 457.75H1337M1333.25 454V462M1287 479.75H1295M1291.25 476V484M1308 479.75H1316M1312.25 476V484M1329 479.75H1337M1333.25 476V484M1287 501.75H1295M1291.25 498V506M1308 501.75H1316M1312.25 498V506M1329 501.75H1337M1333.25 498V506M391 521.75H399M395.25 518V526M412 521.75H420M416.25 518V526M433 521.75H441M437.25 518V526M391 543.75H399M395.25 540V548M412 543.75H420M416.25 540V548M433 543.75H441M437.25 540V548M391 565.75H399M395.25 562V570M412 565.75H420M416.25 562V570M433 565.75H441M437.25 562V570M455 521.75H463M459.25 518V526M476 521.75H484M480.25 518V526M497 521.75H505M501.25 518V526M455 543.75H463M459.25 540V548M476 543.75H484M480.25 540V548M497 543.75H505M501.25 540V548M455 565.75H463M459.25 562V570M476 565.75H484M480.25 562V570M497 565.75H505M501.25 562V570M519 521.75H527M523.25 518V526M540 521.75H548M544.25 518V526M561 521.75H569M565.25 518V526M519 543.75H527M523.25 540V548M540 543.75H548M544.25 540V548M561 543.75H569M565.25 540V548M519 565.75H527M523.25 562V570M540 565.75H548M544.25 562V570M561 565.75H569M565.25 562V570M583 521.75H591M587.25 518V526M604 521.75H612M608.25 518V526M625 521.75H633M629.25 518V526M583 543.75H591M587.25 540V548M604 543.75H612M608.25 540V548M625 543.75H633M629.25 540V548M583 565.75H591M587.25 562V570M604 565.75H612M608.25 562V570M625 565.75H633M629.25 562V570M647 521.75H655M651.25 518V526M668 521.75H676M672.25 518V526M689 521.75H697M693.25 518V526M647 543.75H655M651.25 540V548M668 543.75H676M672.25 540V548M689 543.75H697M693.25 540V548M647 565.75H655M651.25 562V570M668 565.75H676M672.25 562V570M689 565.75H697M693.25 562V570M711 521.75H719M715.25 518V526M732 521.75H740M736.25 518V526M753 521.75H761M757.25 518V526M711 543.75H719M715.25 540V548M732 543.75H740M736.25 540V548M753 543.75H761M757.25 540V548M711 565.75H719M715.25 562V570M732 565.75H740M736.25 562V570M753 565.75H761M757.25 562V570M775 521.75H783M779.25 518V526M796 521.75H804M800.25 518V526M817 521.75H825M821.25 518V526M775 543.75H783M779.25 540V548M796 543.75H804M800.25 540V548M817 543.75H825M821.25 540V548M775 565.75H783M779.25 562V570M796 565.75H804M800.25 562V570M817 565.75H825M821.25 562V570M839 521.75H847M843.25 518V526M860 521.75H868M864.25 518V526M881 521.75H889M885.25 518V526M839 543.75H847M843.25 540V548M860 543.75H868M864.25 540V548M881 543.75H889M885.25 540V548M839 565.75H847M843.25 562V570M860 565.75H868M864.25 562V570M881 565.75H889M885.25 562V570M903 521.75H911M907.25 518V526M924 521.75H932M928.25 518V526M945 521.75H953M949.25 518V526M903 543.75H911M907.25 540V548M924 543.75H932M928.25 540V548M945 543.75H953M949.25 540V548M903 565.75H911M907.25 562V570M924 565.75H932M928.25 562V570M945 565.75H953M949.25 562V570M967 521.75H975M971.25 518V526M988 521.75H996M992.25 518V526M1009 521.75H1017M1013.25 518V526M967 543.75H975M971.25 540V548M988 543.75H996M992.25 540V548M1009 543.75H1017M1013.25 540V548M967 565.75H975M971.25 562V570M988 565.75H996M992.25 562V570M1009 565.75H1017M1013.25 562V570M1031 521.75H1039M1035.25 518V526M1052 521.75H1060M1056.25 518V526M1073 521.75H1081M1077.25 518V526M1031 543.75H1039M1035.25 540V548M1052 543.75H1060M1056.25 540V548M1073 543.75H1081M1077.25 540V548M1031 565.75H1039M1035.25 562V570M1052 565.75H1060M1056.25 562V570M1073 565.75H1081M1077.25 562V570M1095 521.75H1103M1099.25 518V526M1116 521.75H1124M1120.25 518V526M1137 521.75H1145M1141.25 518V526M1095 543.75H1103M1099.25 540V548M1116 543.75H1124M1120.25 540V548M1137 543.75H1145M1141.25 540V548M1095 565.75H1103M1099.25 562V570M1116 565.75H1124M1120.25 562V570M1137 565.75H1145M1141.25 562V570M1159 521.75H1167M1163.25 518V526M1180 521.75H1188M1184.25 518V526M1201 521.75H1209M1205.25 518V526M1159 543.75H1167M1163.25 540V548M1180 543.75H1188M1184.25 540V548M1201 543.75H1209M1205.25 540V548M1159 565.75H1167M1163.25 562V570M1180 565.75H1188M1184.25 562V570M1201 565.75H1209M1205.25 562V570M1223 521.75H1231M1227.25 518V526M1244 521.75H1252M1248.25 518V526M1265 521.75H1273M1269.25 518V526M1223 543.75H1231M1227.25 540V548M1244 543.75H1252M1248.25 540V548M1265 543.75H1273M1269.25 540V548M1223 565.75H1231M1227.25 562V570M1244 565.75H1252M1248.25 562V570M1265 565.75H1273M1269.25 562V570M1287 521.75H1295M1291.25 518V526M1308 521.75H1316M1312.25 518V526M1329 521.75H1337M1333.25 518V526M1287 543.75H1295M1291.25 540V548M1308 543.75H1316M1312.25 540V548M1329 543.75H1337M1333.25 540V548M1287 565.75H1295M1291.25 562V570M1308 565.75H1316M1312.25 562V570M1329 565.75H1337M1333.25 562V570M391 585.75H399M395.25 582V590M412 585.75H420M416.25 582V590M433 585.75H441M437.25 582V590M391 607.75H399M395.25 604V612M412 607.75H420M416.25 604V612M433 607.75H441M437.25 604V612M391 629.75H399M395.25 626V634M412 629.75H420M416.25 626V634M433 629.75H441M437.25 626V634M455 585.75H463M459.25 582V590M476 585.75H484M480.25 582V590M497 585.75H505M501.25 582V590M455 607.75H463M459.25 604V612M476 607.75H484M480.25 604V612M497 607.75H505M501.25 604V612M455 629.75H463M459.25 626V634M476 629.75H484M480.25 626V634M497 629.75H505M501.25 626V634M519 585.75H527M523.25 582V590M540 585.75H548M544.25 582V590M561 585.75H569M565.25 582V590M519 607.75H527M523.25 604V612M540 607.75H548M544.25 604V612M561 607.75H569M565.25 604V612M519 629.75H527M523.25 626V634M540 629.75H548M544.25 626V634M561 629.75H569M565.25 626V634M583 585.75H591M587.25 582V590M604 585.75H612M608.25 582V590M625 585.75H633M629.25 582V590M583 607.75H591M587.25 604V612M604 607.75H612M608.25 604V612M625 607.75H633M629.25 604V612M583 629.75H591M587.25 626V634M604 629.75H612M608.25 626V634M625 629.75H633M629.25 626V634M647 585.75H655M651.25 582V590M668 585.75H676M672.25 582V590M689 585.75H697M693.25 582V590M647 607.75H655M651.25 604V612M668 607.75H676M672.25 604V612M689 607.75H697M693.25 604V612M647 629.75H655M651.25 626V634M668 629.75H676M672.25 626V634M689 629.75H697M693.25 626V634M711 585.75H719M715.25 582V590M732 585.75H740M736.25 582V590M753 585.75H761M757.25 582V590M711 607.75H719M715.25 604V612M732 607.75H740M736.25 604V612M753 607.75H761M757.25 604V612M711 629.75H719M715.25 626V634M732 629.75H740M736.25 626V634M753 629.75H761M757.25 626V634M775 585.75H783M779.25 582V590M796 585.75H804M800.25 582V590M817 585.75H825M821.25 582V590M775 607.75H783M779.25 604V612M796 607.75H804M800.25 604V612M817 607.75H825M821.25 604V612M775 629.75H783M779.25 626V634M796 629.75H804M800.25 626V634M817 629.75H825M821.25 626V634M839 585.75H847M843.25 582V590M860 585.75H868M864.25 582V590M881 585.75H889M885.25 582V590M839 607.75H847M843.25 604V612M860 607.75H868M864.25 604V612M881 607.75H889M885.25 604V612M839 629.75H847M843.25 626V634M860 629.75H868M864.25 626V634M881 629.75H889M885.25 626V634M903 585.75H911M907.25 582V590M924 585.75H932M928.25 582V590M945 585.75H953M949.25 582V590M903 607.75H911M907.25 604V612M924 607.75H932M928.25 604V612M945 607.75H953M949.25 604V612M903 629.75H911M907.25 626V634M924 629.75H932M928.25 626V634M945 629.75H953M949.25 626V634M967 585.75H975M971.25 582V590M988 585.75H996M992.25 582V590M1009 585.75H1017M1013.25 582V590M967 607.75H975M971.25 604V612M988 607.75H996M992.25 604V612M1009 607.75H1017M1013.25 604V612M967 629.75H975M971.25 626V634M988 629.75H996M992.25 626V634M1009 629.75H1017M1013.25 626V634M1031 585.75H1039M1035.25 582V590M1052 585.75H1060M1056.25 582V590M1073 585.75H1081M1077.25 582V590M1031 607.75H1039M1035.25 604V612M1052 607.75H1060M1056.25 604V612M1073 607.75H1081M1077.25 604V612M1031 629.75H1039M1035.25 626V634M1052 629.75H1060M1056.25 626V634M1073 629.75H1081M1077.25 626V634M1095 585.75H1103M1099.25 582V590M1116 585.75H1124M1120.25 582V590M1137 585.75H1145M1141.25 582V590M1095 607.75H1103M1099.25 604V612M1116 607.75H1124M1120.25 604V612M1137 607.75H1145M1141.25 604V612M1095 629.75H1103M1099.25 626V634M1116 629.75H1124M1120.25 626V634M1137 629.75H1145M1141.25 626V634M1159 585.75H1167M1163.25 582V590M1180 585.75H1188M1184.25 582V590M1201 585.75H1209M1205.25 582V590M1159 607.75H1167M1163.25 604V612M1180 607.75H1188M1184.25 604V612M1201 607.75H1209M1205.25 604V612M1159 629.75H1167M1163.25 626V634M1180 629.75H1188M1184.25 626V634M1201 629.75H1209M1205.25 626V634M1223 585.75H1231M1227.25 582V590M1244 585.75H1252M1248.25 582V590M1265 585.75H1273M1269.25 582V590M1223 607.75H1231M1227.25 604V612M1244 607.75H1252M1248.25 604V612M1265 607.75H1273M1269.25 604V612M1223 629.75H1231M1227.25 626V634M1244 629.75H1252M1248.25 626V634M1265 629.75H1273M1269.25 626V634M1287 585.75H1295M1291.25 582V590M1308 585.75H1316M1312.25 582V590M1329 585.75H1337M1333.25 582V590M1287 607.75H1295M1291.25 604V612M1308 607.75H1316M1312.25 604V612M1329 607.75H1337M1333.25 604V612M1287 629.75H1295M1291.25 626V634M1308 629.75H1316M1312.25 626V634M1329 629.75H1337M1333.25 626V634M391 649.75H399M395.25 646V654M412 649.75H420M416.25 646V654M433 649.75H441M437.25 646V654M391 671.75H399M395.25 668V676M412 671.75H420M416.25 668V676M433 671.75H441M437.25 668V676M391 693.75H399M395.25 690V698M412 693.75H420M416.25 690V698M433 693.75H441M437.25 690V698M455 649.75H463M459.25 646V654M476 649.75H484M480.25 646V654M497 649.75H505M501.25 646V654M455 671.75H463M459.25 668V676M476 671.75H484M480.25 668V676M497 671.75H505M501.25 668V676M455 693.75H463M459.25 690V698M476 693.75H484M480.25 690V698M497 693.75H505M501.25 690V698M519 649.75H527M523.25 646V654M540 649.75H548M544.25 646V654M561 649.75H569M565.25 646V654M519 671.75H527M523.25 668V676M540 671.75H548M544.25 668V676M561 671.75H569M565.25 668V676M519 693.75H527M523.25 690V698M540 693.75H548M544.25 690V698M561 693.75H569M565.25 690V698M583 649.75H591M587.25 646V654M604 649.75H612M608.25 646V654M625 649.75H633M629.25 646V654M583 671.75H591M587.25 668V676M604 671.75H612M608.25 668V676M625 671.75H633M629.25 668V676M583 693.75H591M587.25 690V698M604 693.75H612M608.25 690V698M625 693.75H633M629.25 690V698M647 649.75H655M651.25 646V654M668 649.75H676M672.25 646V654M689 649.75H697M693.25 646V654M647 671.75H655M651.25 668V676M668 671.75H676M672.25 668V676M689 671.75H697M693.25 668V676M647 693.75H655M651.25 690V698M668 693.75H676M672.25 690V698M689 693.75H697M693.25 690V698M711 649.75H719M715.25 646V654M732 649.75H740M736.25 646V654M753 649.75H761M757.25 646V654M711 671.75H719M715.25 668V676M732 671.75H740M736.25 668V676M753 671.75H761M757.25 668V676M711 693.75H719M715.25 690V698M732 693.75H740M736.25 690V698M753 693.75H761M757.25 690V698M775 649.75H783M779.25 646V654M796 649.75H804M800.25 646V654M817 649.75H825M821.25 646V654M775 671.75H783M779.25 668V676M796 671.75H804M800.25 668V676M817 671.75H825M821.25 668V676M775 693.75H783M779.25 690V698M796 693.75H804M800.25 690V698M817 693.75H825M821.25 690V698M839 649.75H847M843.25 646V654M860 649.75H868M864.25 646V654M881 649.75H889M885.25 646V654M839 671.75H847M843.25 668V676M860 671.75H868M864.25 668V676M881 671.75H889M885.25 668V676M839 693.75H847M843.25 690V698M860 693.75H868M864.25 690V698M881 693.75H889M885.25 690V698M903 649.75H911M907.25 646V654M924 649.75H932M928.25 646V654M945 649.75H953M949.25 646V654M903 671.75H911M907.25 668V676M924 671.75H932M928.25 668V676M945 671.75H953M949.25 668V676M903 693.75H911M907.25 690V698M924 693.75H932M928.25 690V698M945 693.75H953M949.25 690V698M967 649.75H975M971.25 646V654M988 649.75H996M992.25 646V654M1009 649.75H1017M1013.25 646V654M967 671.75H975M971.25 668V676M988 671.75H996M992.25 668V676M1009 671.75H1017M1013.25 668V676M967 693.75H975M971.25 690V698M988 693.75H996M992.25 690V698M1009 693.75H1017M1013.25 690V698M1031 649.75H1039M1035.25 646V654M1052 649.75H1060M1056.25 646V654M1073 649.75H1081M1077.25 646V654M1031 671.75H1039M1035.25 668V676M1052 671.75H1060M1056.25 668V676M1073 671.75H1081M1077.25 668V676M1031 693.75H1039M1035.25 690V698M1052 693.75H1060M1056.25 690V698M1073 693.75H1081M1077.25 690V698M1095 649.75H1103M1099.25 646V654M1116 649.75H1124M1120.25 646V654M1137 649.75H1145M1141.25 646V654M1095 671.75H1103M1099.25 668V676M1116 671.75H1124M1120.25 668V676M1137 671.75H1145M1141.25 668V676M1095 693.75H1103M1099.25 690V698M1116 693.75H1124M1120.25 690V698M1137 693.75H1145M1141.25 690V698M1159 649.75H1167M1163.25 646V654M1180 649.75H1188M1184.25 646V654M1201 649.75H1209M1205.25 646V654M1159 671.75H1167M1163.25 668V676M1180 671.75H1188M1184.25 668V676M1201 671.75H1209M1205.25 668V676M1159 693.75H1167M1163.25 690V698M1180 693.75H1188M1184.25 690V698M1201 693.75H1209M1205.25 690V698M1223 649.75H1231M1227.25 646V654M1244 649.75H1252M1248.25 646V654M1265 649.75H1273M1269.25 646V654M1223 671.75H1231M1227.25 668V676M1244 671.75H1252M1248.25 668V676M1265 671.75H1273M1269.25 668V676M1223 693.75H1231M1227.25 690V698M1244 693.75H1252M1248.25 690V698M1265 693.75H1273M1269.25 690V698M1287 649.75H1295M1291.25 646V654M1308 649.75H1316M1312.25 646V654M1329 649.75H1337M1333.25 646V654M1287 671.75H1295M1291.25 668V676M1308 671.75H1316M1312.25 668V676M1329 671.75H1337M1333.25 668V676M1287 693.75H1295M1291.25 690V698M1308 693.75H1316M1312.25 690V698M1329 693.75H1337M1333.25 690V698M391 713.75H399M395.25 710V718M412 713.75H420M416.25 710V718M433 713.75H441M437.25 710V718M391 735.75H399M395.25 732V740M412 735.75H420M416.25 732V740M433 735.75H441M437.25 732V740M391 757.75H399M395.25 754V762M412 757.75H420M416.25 754V762M433 757.75H441M437.25 754V762M455 713.75H463M459.25 710V718M476 713.75H484M480.25 710V718M497 713.75H505M501.25 710V718M455 735.75H463M459.25 732V740M476 735.75H484M480.25 732V740M497 735.75H505M501.25 732V740M455 757.75H463M459.25 754V762M476 757.75H484M480.25 754V762M497 757.75H505M501.25 754V762M519 713.75H527M523.25 710V718M540 713.75H548M544.25 710V718M561 713.75H569M565.25 710V718M519 735.75H527M523.25 732V740M540 735.75H548M544.25 732V740M561 735.75H569M565.25 732V740M519 757.75H527M523.25 754V762M540 757.75H548M544.25 754V762M561 757.75H569M565.25 754V762M583 713.75H591M587.25 710V718M604 713.75H612M608.25 710V718M625 713.75H633M629.25 710V718M583 735.75H591M587.25 732V740M604 735.75H612M608.25 732V740M625 735.75H633M629.25 732V740M583 757.75H591M587.25 754V762M604 757.75H612M608.25 754V762M625 757.75H633M629.25 754V762M647 713.75H655M651.25 710V718M668 713.75H676M672.25 710V718M689 713.75H697M693.25 710V718M647 735.75H655M651.25 732V740M668 735.75H676M672.25 732V740M689 735.75H697M693.25 732V740M647 757.75H655M651.25 754V762M668 757.75H676M672.25 754V762M689 757.75H697M693.25 754V762M711 713.75H719M715.25 710V718M732 713.75H740M736.25 710V718M753 713.75H761M757.25 710V718M711 735.75H719M715.25 732V740M732 735.75H740M736.25 732V740M753 735.75H761M757.25 732V740M711 757.75H719M715.25 754V762M732 757.75H740M736.25 754V762M753 757.75H761M757.25 754V762M775 713.75H783M779.25 710V718M796 713.75H804M800.25 710V718M817 713.75H825M821.25 710V718M775 735.75H783M779.25 732V740M796 735.75H804M800.25 732V740M817 735.75H825M821.25 732V740M775 757.75H783M779.25 754V762M796 757.75H804M800.25 754V762M817 757.75H825M821.25 754V762M839 713.75H847M843.25 710V718M860 713.75H868M864.25 710V718M881 713.75H889M885.25 710V718M839 735.75H847M843.25 732V740M860 735.75H868M864.25 732V740M881 735.75H889M885.25 732V740M839 757.75H847M843.25 754V762M860 757.75H868M864.25 754V762M881 757.75H889M885.25 754V762M903 713.75H911M907.25 710V718M924 713.75H932M928.25 710V718M945 713.75H953M949.25 710V718M903 735.75H911M907.25 732V740M924 735.75H932M928.25 732V740M945 735.75H953M949.25 732V740M903 757.75H911M907.25 754V762M924 757.75H932M928.25 754V762M945 757.75H953M949.25 754V762M967 713.75H975M971.25 710V718M988 713.75H996M992.25 710V718M1009 713.75H1017M1013.25 710V718M967 735.75H975M971.25 732V740M988 735.75H996M992.25 732V740M1009 735.75H1017M1013.25 732V740M967 757.75H975M971.25 754V762M988 757.75H996M992.25 754V762M1009 757.75H1017M1013.25 754V762M1031 713.75H1039M1035.25 710V718M1052 713.75H1060M1056.25 710V718M1073 713.75H1081M1077.25 710V718M1031 735.75H1039M1035.25 732V740M1052 735.75H1060M1056.25 732V740M1073 735.75H1081M1077.25 732V740M1031 757.75H1039M1035.25 754V762M1052 757.75H1060M1056.25 754V762M1073 757.75H1081M1077.25 754V762M1095 713.75H1103M1099.25 710V718M1116 713.75H1124M1120.25 710V718M1137 713.75H1145M1141.25 710V718M1095 735.75H1103M1099.25 732V740M1116 735.75H1124M1120.25 732V740M1137 735.75H1145M1141.25 732V740M1095 757.75H1103M1099.25 754V762M1116 757.75H1124M1120.25 754V762M1137 757.75H1145M1141.25 754V762M1159 713.75H1167M1163.25 710V718M1180 713.75H1188M1184.25 710V718M1201 713.75H1209M1205.25 710V718M1159 735.75H1167M1163.25 732V740M1180 735.75H1188M1184.25 732V740M1201 735.75H1209M1205.25 732V740M1159 757.75H1167M1163.25 754V762M1180 757.75H1188M1184.25 754V762M1201 757.75H1209M1205.25 754V762M1223 713.75H1231M1227.25 710V718M1244 713.75H1252M1248.25 710V718M1265 713.75H1273M1269.25 710V718M1223 735.75H1231M1227.25 732V740M1244 735.75H1252M1248.25 732V740M1265 735.75H1273M1269.25 732V740M1223 757.75H1231M1227.25 754V762M1244 757.75H1252M1248.25 754V762M1265 757.75H1273M1269.25 754V762M1287 713.75H1295M1291.25 710V718M1308 713.75H1316M1312.25 710V718M1329 713.75H1337M1333.25 710V718M1287 735.75H1295M1291.25 732V740M1308 735.75H1316M1312.25 732V740M1329 735.75H1337M1333.25 732V740M1287 757.75H1295M1291.25 754V762M1308 757.75H1316M1312.25 754V762M1329 757.75H1337M1333.25 754V762M391 777.75H399M395.25 774V782M412 777.75H420M416.25 774V782M433 777.75H441M437.25 774V782M391 799.75H399M395.25 796V804M412 799.75H420M416.25 796V804M433 799.75H441M437.25 796V804M391 821.75H399M395.25 818V826M412 821.75H420M416.25 818V826M433 821.75H441M437.25 818V826M455 777.75H463M459.25 774V782M476 777.75H484M480.25 774V782M497 777.75H505M501.25 774V782M455 799.75H463M459.25 796V804M476 799.75H484M480.25 796V804M497 799.75H505M501.25 796V804M455 821.75H463M459.25 818V826M476 821.75H484M480.25 818V826M497 821.75H505M501.25 818V826M519 777.75H527M523.25 774V782M540 777.75H548M544.25 774V782M561 777.75H569M565.25 774V782M519 799.75H527M523.25 796V804M540 799.75H548M544.25 796V804M561 799.75H569M565.25 796V804M519 821.75H527M523.25 818V826M540 821.75H548M544.25 818V826M561 821.75H569M565.25 818V826M583 777.75H591M587.25 774V782M604 777.75H612M608.25 774V782M625 777.75H633M629.25 774V782M583 799.75H591M587.25 796V804M604 799.75H612M608.25 796V804M625 799.75H633M629.25 796V804M583 821.75H591M587.25 818V826M604 821.75H612M608.25 818V826M625 821.75H633M629.25 818V826M647 777.75H655M651.25 774V782M668 777.75H676M672.25 774V782M689 777.75H697M693.25 774V782M647 799.75H655M651.25 796V804M668 799.75H676M672.25 796V804M689 799.75H697M693.25 796V804M647 821.75H655M651.25 818V826M668 821.75H676M672.25 818V826M689 821.75H697M693.25 818V826M711 777.75H719M715.25 774V782M732 777.75H740M736.25 774V782M753 777.75H761M757.25 774V782M711 799.75H719M715.25 796V804M732 799.75H740M736.25 796V804M753 799.75H761M757.25 796V804M711 821.75H719M715.25 818V826M732 821.75H740M736.25 818V826M753 821.75H761M757.25 818V826M775 777.75H783M779.25 774V782M796 777.75H804M800.25 774V782M817 777.75H825M821.25 774V782M775 799.75H783M779.25 796V804M796 799.75H804M800.25 796V804M817 799.75H825M821.25 796V804M775 821.75H783M779.25 818V826M796 821.75H804M800.25 818V826M817 821.75H825M821.25 818V826M839 777.75H847M843.25 774V782M860 777.75H868M864.25 774V782M881 777.75H889M885.25 774V782M839 799.75H847M843.25 796V804M860 799.75H868M864.25 796V804M881 799.75H889M885.25 796V804M839 821.75H847M843.25 818V826M860 821.75H868M864.25 818V826M881 821.75H889M885.25 818V826M903 777.75H911M907.25 774V782M924 777.75H932M928.25 774V782M945 777.75H953M949.25 774V782M903 799.75H911M907.25 796V804M924 799.75H932M928.25 796V804M945 799.75H953M949.25 796V804M903 821.75H911M907.25 818V826M924 821.75H932M928.25 818V826M945 821.75H953M949.25 818V826M967 777.75H975M971.25 774V782M988 777.75H996M992.25 774V782M1009 777.75H1017M1013.25 774V782M967 799.75H975M971.25 796V804M988 799.75H996M992.25 796V804M1009 799.75H1017M1013.25 796V804M967 821.75H975M971.25 818V826M988 821.75H996M992.25 818V826M1009 821.75H1017M1013.25 818V826M1031 777.75H1039M1035.25 774V782M1052 777.75H1060M1056.25 774V782M1073 777.75H1081M1077.25 774V782M1031 799.75H1039M1035.25 796V804M1052 799.75H1060M1056.25 796V804M1073 799.75H1081M1077.25 796V804M1031 821.75H1039M1035.25 818V826M1052 821.75H1060M1056.25 818V826M1073 821.75H1081M1077.25 818V826M1095 777.75H1103M1099.25 774V782M1116 777.75H1124M1120.25 774V782M1137 777.75H1145M1141.25 774V782M1095 799.75H1103M1099.25 796V804M1116 799.75H1124M1120.25 796V804M1137 799.75H1145M1141.25 796V804M1095 821.75H1103M1099.25 818V826M1116 821.75H1124M1120.25 818V826M1137 821.75H1145M1141.25 818V826M1159 777.75H1167M1163.25 774V782M1180 777.75H1188M1184.25 774V782M1201 777.75H1209M1205.25 774V782M1159 799.75H1167M1163.25 796V804M1180 799.75H1188M1184.25 796V804M1201 799.75H1209M1205.25 796V804M1159 821.75H1167M1163.25 818V826M1180 821.75H1188M1184.25 818V826M1201 821.75H1209M1205.25 818V826M1223 777.75H1231M1227.25 774V782M1244 777.75H1252M1248.25 774V782M1265 777.75H1273M1269.25 774V782M1223 799.75H1231M1227.25 796V804M1244 799.75H1252M1248.25 796V804M1265 799.75H1273M1269.25 796V804M1223 821.75H1231M1227.25 818V826M1244 821.75H1252M1248.25 818V826M1265 821.75H1273M1269.25 818V826M1287 777.75H1295M1291.25 774V782M1308 777.75H1316M1312.25 774V782M1329 777.75H1337M1333.25 774V782M1287 799.75H1295M1291.25 796V804M1308 799.75H1316M1312.25 796V804M1329 799.75H1337M1333.25 796V804M1287 821.75H1295M1291.25 818V826M1308 821.75H1316M1312.25 818V826M1329 821.75H1337M1333.25 818V826M391 841.75H399M395.25 838V846M412 841.75H420M416.25 838V846M433 841.75H441M437.25 838V846M391 863.75H399M395.25 860V868M412 863.75H420M416.25 860V868M433 863.75H441M437.25 860V868M391 885.75H399M395.25 882V890M412 885.75H420M416.25 882V890M433 885.75H441M437.25 882V890M455 841.75H463M459.25 838V846M476 841.75H484M480.25 838V846M497 841.75H505M501.25 838V846M455 863.75H463M459.25 860V868M476 863.75H484M480.25 860V868M497 863.75H505M501.25 860V868M455 885.75H463M459.25 882V890M476 885.75H484M480.25 882V890M497 885.75H505M501.25 882V890M519 841.75H527M523.25 838V846M540 841.75H548M544.25 838V846M561 841.75H569M565.25 838V846M519 863.75H527M523.25 860V868M540 863.75H548M544.25 860V868M561 863.75H569M565.25 860V868M519 885.75H527M523.25 882V890M540 885.75H548M544.25 882V890M561 885.75H569M565.25 882V890M583 841.75H591M587.25 838V846M604 841.75H612M608.25 838V846M625 841.75H633M629.25 838V846M583 863.75H591M587.25 860V868M604 863.75H612M608.25 860V868M625 863.75H633M629.25 860V868M583 885.75H591M587.25 882V890M604 885.75H612M608.25 882V890M625 885.75H633M629.25 882V890M647 841.75H655M651.25 838V846M668 841.75H676M672.25 838V846M689 841.75H697M693.25 838V846M647 863.75H655M651.25 860V868M668 863.75H676M672.25 860V868M689 863.75H697M693.25 860V868M647 885.75H655M651.25 882V890M668 885.75H676M672.25 882V890M689 885.75H697M693.25 882V890M711 841.75H719M715.25 838V846M732 841.75H740M736.25 838V846M753 841.75H761M757.25 838V846M711 863.75H719M715.25 860V868M732 863.75H740M736.25 860V868M753 863.75H761M757.25 860V868M711 885.75H719M715.25 882V890M732 885.75H740M736.25 882V890M753 885.75H761M757.25 882V890M775 841.75H783M779.25 838V846M796 841.75H804M800.25 838V846M817 841.75H825M821.25 838V846M775 863.75H783M779.25 860V868M796 863.75H804M800.25 860V868M817 863.75H825M821.25 860V868M775 885.75H783M779.25 882V890M796 885.75H804M800.25 882V890M817 885.75H825M821.25 882V890M839 841.75H847M843.25 838V846M860 841.75H868M864.25 838V846M881 841.75H889M885.25 838V846M839 863.75H847M843.25 860V868M860 863.75H868M864.25 860V868M881 863.75H889M885.25 860V868M839 885.75H847M843.25 882V890M860 885.75H868M864.25 882V890M881 885.75H889M885.25 882V890M903 841.75H911M907.25 838V846M924 841.75H932M928.25 838V846M945 841.75H953M949.25 838V846M903 863.75H911M907.25 860V868M924 863.75H932M928.25 860V868M945 863.75H953M949.25 860V868M903 885.75H911M907.25 882V890M924 885.75H932M928.25 882V890M945 885.75H953M949.25 882V890M967 841.75H975M971.25 838V846M988 841.75H996M992.25 838V846M1009 841.75H1017M1013.25 838V846M967 863.75H975M971.25 860V868M988 863.75H996M992.25 860V868M1009 863.75H1017M1013.25 860V868M967 885.75H975M971.25 882V890M988 885.75H996M992.25 882V890M1009 885.75H1017M1013.25 882V890M1031 841.75H1039M1035.25 838V846M1052 841.75H1060M1056.25 838V846M1073 841.75H1081M1077.25 838V846M1031 863.75H1039M1035.25 860V868M1052 863.75H1060M1056.25 860V868M1073 863.75H1081M1077.25 860V868M1031 885.75H1039M1035.25 882V890M1052 885.75H1060M1056.25 882V890M1073 885.75H1081M1077.25 882V890M1095 841.75H1103M1099.25 838V846M1116 841.75H1124M1120.25 838V846M1137 841.75H1145M1141.25 838V846M1095 863.75H1103M1099.25 860V868M1116 863.75H1124M1120.25 860V868M1137 863.75H1145M1141.25 860V868M1095 885.75H1103M1099.25 882V890M1116 885.75H1124M1120.25 882V890M1137 885.75H1145M1141.25 882V890M1159 841.75H1167M1163.25 838V846M1180 841.75H1188M1184.25 838V846M1201 841.75H1209M1205.25 838V846M1159 863.75H1167M1163.25 860V868M1180 863.75H1188M1184.25 860V868M1201 863.75H1209M1205.25 860V868M1159 885.75H1167M1163.25 882V890M1180 885.75H1188M1184.25 882V890M1201 885.75H1209M1205.25 882V890M1223 841.75H1231M1227.25 838V846M1244 841.75H1252M1248.25 838V846M1265 841.75H1273M1269.25 838V846M1223 863.75H1231M1227.25 860V868M1244 863.75H1252M1248.25 860V868M1265 863.75H1273M1269.25 860V868M1223 885.75H1231M1227.25 882V890M1244 885.75H1252M1248.25 882V890M1265 885.75H1273M1269.25 882V890M1287 841.75H1295M1291.25 838V846M1308 841.75H1316M1312.25 838V846M1329 841.75H1337M1333.25 838V846M1287 863.75H1295M1291.25 860V868M1308 863.75H1316M1312.25 860V868M1329 863.75H1337M1333.25 860V868M1287 885.75H1295M1291.25 882V890M1308 885.75H1316M1312.25 882V890M1329 885.75H1337M1333.25 882V890M391 905.75H399M395.25 902V910M412 905.75H420M416.25 902V910M433 905.75H441M437.25 902V910M391 927.75H399M395.25 924V932M412 927.75H420M416.25 924V932M433 927.75H441M437.25 924V932M391 949.75H399M395.25 946V954M412 949.75H420M416.25 946V954M433 949.75H441M437.25 946V954M455 905.75H463M459.25 902V910M476 905.75H484M480.25 902V910M497 905.75H505M501.25 902V910M455 927.75H463M459.25 924V932M476 927.75H484M480.25 924V932M497 927.75H505M501.25 924V932M455 949.75H463M459.25 946V954M476 949.75H484M480.25 946V954M497 949.75H505M501.25 946V954M519 905.75H527M523.25 902V910M540 905.75H548M544.25 902V910M561 905.75H569M565.25 902V910M519 927.75H527M523.25 924V932M540 927.75H548M544.25 924V932M561 927.75H569M565.25 924V932M519 949.75H527M523.25 946V954M540 949.75H548M544.25 946V954M561 949.75H569M565.25 946V954M583 905.75H591M587.25 902V910M604 905.75H612M608.25 902V910M625 905.75H633M629.25 902V910M583 927.75H591M587.25 924V932M604 927.75H612M608.25 924V932M625 927.75H633M629.25 924V932M583 949.75H591M587.25 946V954M604 949.75H612M608.25 946V954M625 949.75H633M629.25 946V954M647 905.75H655M651.25 902V910M668 905.75H676M672.25 902V910M689 905.75H697M693.25 902V910M647 927.75H655M651.25 924V932M668 927.75H676M672.25 924V932M689 927.75H697M693.25 924V932M647 949.75H655M651.25 946V954M668 949.75H676M672.25 946V954M689 949.75H697M693.25 946V954M711 905.75H719M715.25 902V910M732 905.75H740M736.25 902V910M753 905.75H761M757.25 902V910M711 927.75H719M715.25 924V932M732 927.75H740M736.25 924V932M753 927.75H761M757.25 924V932M711 949.75H719M715.25 946V954M732 949.75H740M736.25 946V954M753 949.75H761M757.25 946V954M775 905.75H783M779.25 902V910M796 905.75H804M800.25 902V910M817 905.75H825M821.25 902V910M775 927.75H783M779.25 924V932M796 927.75H804M800.25 924V932M817 927.75H825M821.25 924V932M775 949.75H783M779.25 946V954M796 949.75H804M800.25 946V954M817 949.75H825M821.25 946V954M839 905.75H847M843.25 902V910M860 905.75H868M864.25 902V910M881 905.75H889M885.25 902V910M839 927.75H847M843.25 924V932M860 927.75H868M864.25 924V932M881 927.75H889M885.25 924V932M839 949.75H847M843.25 946V954M860 949.75H868M864.25 946V954M881 949.75H889M885.25 946V954M903 905.75H911M907.25 902V910M924 905.75H932M928.25 902V910M945 905.75H953M949.25 902V910M903 927.75H911M907.25 924V932M924 927.75H932M928.25 924V932M945 927.75H953M949.25 924V932M903 949.75H911M907.25 946V954M924 949.75H932M928.25 946V954M945 949.75H953M949.25 946V954M967 905.75H975M971.25 902V910M988 905.75H996M992.25 902V910M1009 905.75H1017M1013.25 902V910M967 927.75H975M971.25 924V932M988 927.75H996M992.25 924V932M1009 927.75H1017M1013.25 924V932M967 949.75H975M971.25 946V954M988 949.75H996M992.25 946V954M1009 949.75H1017M1013.25 946V954M1031 905.75H1039M1035.25 902V910M1052 905.75H1060M1056.25 902V910M1073 905.75H1081M1077.25 902V910M1031 927.75H1039M1035.25 924V932M1052 927.75H1060M1056.25 924V932M1073 927.75H1081M1077.25 924V932M1031 949.75H1039M1035.25 946V954M1052 949.75H1060M1056.25 946V954M1073 949.75H1081M1077.25 946V954M1095 905.75H1103M1099.25 902V910M1116 905.75H1124M1120.25 902V910M1137 905.75H1145M1141.25 902V910M1095 927.75H1103M1099.25 924V932M1116 927.75H1124M1120.25 924V932M1137 927.75H1145M1141.25 924V932M1095 949.75H1103M1099.25 946V954M1116 949.75H1124M1120.25 946V954M1137 949.75H1145M1141.25 946V954M1159 905.75H1167M1163.25 902V910M1180 905.75H1188M1184.25 902V910M1201 905.75H1209M1205.25 902V910M1159 927.75H1167M1163.25 924V932M1180 927.75H1188M1184.25 924V932M1201 927.75H1209M1205.25 924V932M1159 949.75H1167M1163.25 946V954M1180 949.75H1188M1184.25 946V954M1201 949.75H1209M1205.25 946V954M1223 905.75H1231M1227.25 902V910M1244 905.75H1252M1248.25 902V910M1265 905.75H1273M1269.25 902V910M1223 927.75H1231M1227.25 924V932M1244 927.75H1252M1248.25 924V932M1265 927.75H1273M1269.25 924V932M1223 949.75H1231M1227.25 946V954M1244 949.75H1252M1248.25 946V954M1265 949.75H1273M1269.25 946V954M1287 905.75H1295M1291.25 902V910M1308 905.75H1316M1312.25 902V910M1329 905.75H1337M1333.25 902V910M1287 927.75H1295M1291.25 924V932M1308 927.75H1316M1312.25 924V932M1329 927.75H1337M1333.25 924V932M1287 949.75H1295M1291.25 946V954M1308 949.75H1316M1312.25 946V954M1329 949.75H1337M1333.25 946V954" stroke="#D1CDC9" stroke-width="0.5"/>
</g>
<defs>
<radialGradient id="paint0_radial_2042_7484" cx="0" cy="0" r="1" gradientUnits="userSpaceOnUse" gradientTransform="translate(480) rotate(90) scale(960 466.314)">
<stop/>
<stop offset="1" stop-opacity="0"/>
</radialGradient>
</defs>
</svg>
